<?xml version="1.0" encoding="utf-8"?>
<!-- Generator: Adobe Illustrator 17.1.0, SVG Export Plug-In . SVG Version: 6.00 Build 0)  -->
<!DOCTYPE svg PUBLIC "-//W3C//DTD SVG 1.1//EN" "http://www.w3.org/Graphics/SVG/1.1/DTD/svg11.dtd">
<svg version="1.1" id="Layer_1" xmlns="http://www.w3.org/2000/svg" xmlns:xlink="http://www.w3.org/1999/xlink" x="0px" y="0px"
	 viewBox="0 0 960 960" enable-background="new 0 0 960 960" xml:space="preserve">
<path d="M364.7,428c8-3.8,14.2-5.3,18.7-8.9c14.5-11.6,28.3-23.9,43.9-37.2c-26,0-47.7,3.7-66.3,20.8C324.7,436,287.3,468,250.8,501
	c-3.8,3.5-6.5,10.1-6.8,15.4c-3.6,69.1,6.7,136.3,27.8,202c4.3,13.4,8.7,26.7,12,40.3c-46.8-87.8-74.3-180.5-70.7-282.1
	c17.3,7.6,29.6-1.8,41.3-11.6c37.4-31.4,74.5-63.2,111.9-94.6c3-2.5,7.7-4,11.7-4.3c16.9-1.1,33.9-1.5,51.2-3.8
	c-8.6-12.7-21.8-16.8-34.6-15.6c-22.9,2.1-46,5.6-68.1,11.8c-18.1,5.1-34.7,15.3-52.1,22.6c-3.3,1.4-7.9,0-11.8-0.3
	c-0.6,0-1.1-1-1.7-1.4c-16.3-12.8-32.9-25.4-19.2-49.7c9.4-76.6,37.5-146.3,78.2-211.3c0.4-0.6,0.9-1.1,2.4-1.3
	c-17.7,36.4-31.1,74.2-40.1,113.6c-9.1,39.8-13.1,80.2-14,122.6c6.2-0.9,11.2-1.3,16-2.5c31.4-8.3,62.8-16.5,94-25.2
	c11.2-3.1,21.2-2.1,31.3,3.5c6.1,3.4,12.7,5.8,19.6,8.9c0-12.6-9.9-25-19.6-25.1c-17.9-0.2-35.9-0.7-53.8,0.5
	c-10.7,0.7-21.3,4.3-34.1,7.2c-4.3-3.9-11.3-9.5-17.2-16.1c-1.9-2.1-1.5-7-0.9-10.4c8.4-46.9,23.5-91.7,41.1-135.8
	c5.3-13.4,11.2-26.6,19.1-39.2c-0.7,3.4-1.2,6.8-2.2,10.1c-13.1,43.7-25,87.8-28.4,133.4c-3,39.9-7.6,33.8,32.1,35.1
	c12.6,0.4,25.4-1.5,37.9-3.6c10.6-1.8,19,0,25.8,8.7c5,6.4,10.7,12.3,17.4,20c4.3-11.1,6.7-20.2,17.8-20.2c-2,7-3.9,13.9-5.8,20.7
	c0.9,0.5,1.7,1,2.6,1.5c2.7-2.1,5.4-4.2,5.7-4.5c9.5,0,16.6,0,23.7,0c0.1-0.9,0.3-1.8,0.4-2.6c2.3,2.2,4.6,4.4,6.9,6.5
	c1-0.3,2-0.6,3-1c-1.6-6.9-3.3-13.9-4.9-20.8c0.6-0.6,1.2-1.3,1.7-1.9c5.4,5.6,10.9,11.3,17.6,18.3c4.8-4.7,11.8-9.8,16.7-16.5
	c6.6-9.1,14.6-9.5,24.5-8.1c13.7,1.9,27.5,2.8,41.3,3.5c9.7,0.5,19.4,0.1,30.2,0.1c1.2-65.1-17-125-32.3-185.9
	c3,6.3,6.8,12.3,9,18.8c17.4,51.2,34.9,102.4,51.4,153.9c5.5,17.2,3.2,19.7-12,30.5c-2.7,1.9-5.2,4.2-7.5,3.5
	c-13.4-1.6-26.8-3.6-40.2-4.7c-13.4-1.1-26.8-1.3-40.3-2c-13.3-0.7-18.9,4.2-27.7,26.6c7.4-2.8,13.7-3.9,18.4-7.3
	c13.1-9.4,25.9-7.7,40.4-3.5c33.6,9.8,67.6,18.1,103.6,27.6c1.8-82-16.2-158.2-50.8-230.9c0.9-0.5,1.8-1,2.7-1.4
	c7.8,13.6,16.2,26.9,23.4,40.8c22.8,43.6,37,90.3,47.9,138.1c3.8,16.7,7,33.5,9.9,50.3c0.4,2.6-1.5,6.4-3.6,8.5
	c-5.8,5.8-12.8,10.4-18.2,16.6c-7,8-12.9,6.3-21.3,1.9c-37-19.5-75.6-33.9-118.4-32.8c-12.2,0.3-22.4,5.2-31.4,12.7
	c0.2,1.7,0.5,3.4,0.7,5.1c15.3,0.6,30.7,2.1,46,1.5c8.7-0.4,14.8,1.6,20.7,7.9c37,39.9,79.4,73.4,125.4,102.3
	c5.6,3.6,14.1,2.6,22.8,4.1c4.9,103.3-27.5,199.6-76.5,291.7c6.6-19.3,13.4-38.6,19.7-58c17.4-54.1,26-109.6,26.6-166.4
	c0-3.7-0.6-7.6,0.2-11.2c5-22.5-5.6-37.3-22.2-50.9c-36.7-29.9-72.9-60.5-108.7-91.6c-14.7-12.8-32.4-8.4-49.3-12.8
	c8.4,17.1,45.7,45.1,60.2,44.3c0,13.7-0.1,27.3,0,41c0.8,81.3-3.8,162.2-20.9,241.9c-9.4,43.9-22.3,86.8-45.2,125.9
	c-2.2,3.8-5.1,7.2-9,10.1c5.6-14.9,11.8-29.6,16.7-44.7c19.7-59.5,25.9-121.3,26.9-183.4c0.8-48.5-2.4-97-3.6-145.6
	c-0.1-3.6-0.7-8.4,1.2-10.6c7.6-8.7,4.5-16.1-1.8-22.9c-13.2-13.9-26.9-27.3-40.3-41c-1.5,1-3,1.9-4.5,2.9c2,6,2.6,12.9,6.2,17.7
	c6.4,8.6,7.4,17.8,6.2,27.6c-6.6,50.7-20.2,99.4-40.9,146.1c-0.3,0.6-1.1,0.9-2.9,2.3c-1.3-3-2.5-5.7-4-9.2
	c-1.8,2.7-3.3,5.2-6.6,10.2c-7.8-19.8-16.5-37.2-21.5-55.6c-8-29.1-13.6-58.9-19.9-88.4c-2.8-12.9-1-25.1,6.5-36.5
	c2.6-4,3.4-9.2,5.1-13.9c-0.8-0.6-1.7-1.3-2.5-1.9c-4.8,3.3-10.3,5.8-14.2,9.9c-11.1,11.6-21.8,23.6-32.1,35.8
	c-1.9,2.3-3.2,8.4-1.9,9.6c7.5,7,4.6,15.4,4.2,23.2c-4.9,83.7-5.7,167.4,6.7,250.6c5.9,39.6,15.4,78.4,34.6,114.1
	c1.2,2.2,1.8,4.6,0.6,8.3c-3.1-4.6-6.5-9-9.3-13.7c-28.8-48.7-42.7-102.4-51.1-157.7c-12-78.5-17.8-157.4-15.8-236.9
	C363.5,435.3,364.4,430.5,364.7,428z"/>
</svg>
